<svg width="48" height="48" viewBox="0 0 48 48" fill="none" xmlns="http://www.w3.org/2000/svg">
  <rect width="48" height="48" rx="4" fill="#4080FF" opacity="0.1"/>
  <rect x="8" y="8" width="10" height="10" rx="2" fill="#4080FF"/>
  <rect x="22" y="8" width="10" height="10" rx="2" fill="#F44336"/>
  <rect x="8" y="22" width="10" height="10" rx="2" fill="#4CAF50"/>
  <rect x="22" y="22" width="10" height="10" rx="2" fill="#FFC107"/>
  <rect x="36" y="8" width="4" height="32" rx="2" fill="#4080FF"/>
  <path d="M10 36H30C31.1046 36 32 36.8954 32 38V38C32 39.1046 31.1046 40 30 40H10C8.89543 40 8 39.1046 8 38V38C8 36.8954 8.89543 36 10 36Z" fill="#4080FF"/>
</svg> 