<?xml version="1.0" encoding="UTF-8"?>
<svg width="24px" height="24px" viewBox="0 0 24 24" version="1.1" xmlns="http://www.w3.org/2000/svg">
    <path d="M13,2.05V4.05C16.39,4.59 19,7.5 19,11C19,14.5 16.39,17.41 13,17.95V19.95C17.5,19.41 21,15.64 21,11C21,6.36 17.5,2.59 13,2.05M5.67,11H7.67C7.67,8.58 9.63,6.63 12.05,6.63V4.63C8.53,4.63 5.67,7.5 5.67,11M12.05,15.37C9.63,15.37 7.67,13.41 7.67,11H5.67C5.67,14.5 8.53,17.37 12.05,17.37V15.37M8.07,4.07C6.58,5.13 5.4,6.58 4.68,8.28L6.5,9C7.05,7.67 7.97,6.56 9.14,5.75L8.07,4.07M4.68,13.72C5.4,15.42 6.58,16.87 8.07,17.93L9.14,16.25C7.97,15.44 7.05,14.33 6.5,13L4.68,13.72Z" fill="#FF9800"></path>
</svg> 