<?xml version="1.0" encoding="UTF-8"?>
<svg width="24px" height="24px" viewBox="0 0 24 24" version="1.1" xmlns="http://www.w3.org/2000/svg">
    <path d="M7.5,4A5.5,5.5 0 0,0 2,9.5C2,10 2.09,10.5 2.22,11H6.3L7.57,7.63C7.87,6.83 9.05,6.75 9.43,7.63L11.5,13L12.09,11.58C12.22,11.25 12.67,11.25 12.79,11.58L13.79,13.5H18.78C18.91,13 19,12.5 19,12C19,8.13 15.87,5 12,5C11.5,5 11.03,5.05 10.59,5.14C9.74,4.38 8.7,4 7.5,4M7.5,6A3.5,3.5 0 0,1 11,9.5C11,10 10.92,10.5 10.76,11H13.3L14.57,7.63C14.87,6.83 16.05,6.75 16.43,7.63L18.5,13L19.09,11.58C19.22,11.25 19.67,11.25 19.79,11.58L20.79,13.5H22C22,13.5 22,13 22,12.5C22,8.63 18.87,5.5 15,5.5C14.5,5.5 14.03,5.55 13.59,5.64C12.74,4.88 11.7,4.5 10.5,4.5C8.62,4.5 7,5.62 6.35,7.18C6.72,6.82 7.14,6.5 7.5,6M18,15V18H15V20H18V23H20V20H23V18H20V15H18Z" fill="#4CAF50"></path>
</svg> 